<?xml version="1.0" encoding="UTF-8" standalone="no"?>
<!-- Created with Inkscape (http://www.inkscape.org/) -->

<svg
   width="200mm"
   height="200mm"
   viewBox="0 0 200 200"
   version="1.1"
   id="svg5"
   inkscape:version="1.1.2 (0a00cf5339, 2022-02-04)"
   sodipodi:docname="DFT_LOGO_V2.svg"
   xmlns:inkscape="http://www.inkscape.org/namespaces/inkscape"
   xmlns:sodipodi="http://sodipodi.sourceforge.net/DTD/sodipodi-0.dtd"
   xmlns="http://www.w3.org/2000/svg"
   xmlns:svg="http://www.w3.org/2000/svg">
  <sodipodi:namedview
     id="namedview7"
     pagecolor="#ffffff"
     bordercolor="#666666"
     borderopacity="1.0"
     inkscape:pageshadow="2"
     inkscape:pageopacity="0.0"
     inkscape:pagecheckerboard="0"
     inkscape:document-units="mm"
     showgrid="false"
     inkscape:snap-bbox="true"
     inkscape:snap-intersection-paths="true"
     inkscape:snap-object-midpoints="true"
     inkscape:snap-page="true"
     inkscape:object-paths="true"
     inkscape:snap-smooth-nodes="true"
     inkscape:snap-global="true"
     inkscape:zoom="0.74208053"
     inkscape:cx="396.18342"
     inkscape:cy="561.93362"
     inkscape:window-width="1920"
     inkscape:window-height="1044"
     inkscape:window-x="2560"
     inkscape:window-y="0"
     inkscape:window-maximized="1"
     inkscape:current-layer="layer1" />
  <defs
     id="defs2">
    <linearGradient
       id="grad1"
       x2="617.20952"
       y2="131.56039"
       gradientTransform="matrix(0.39509707,0,0,0.17718263,50.809359,61.599922)"
       x1="14.719273"
       y1="31.145348"
       gradientUnits="userSpaceOnUse">
      <stop
         stop-color="#9e00a2"
         offset="0"
         stopColor="#9e00a2"
         id="stop2" />
      <stop
         stop-color="#00ffef"
         offset="1"
         stopColor="#00ffef"
         id="stop4" />
    </linearGradient>
  </defs>
  <g
     inkscape:label="Layer 1"
     inkscape:groupmode="layer"
     id="layer1">
    <path
       id="path848"
       style="fill:#ffffff;stroke-width:2.5"
       d="M 377.95312 22.117188 A 355.83486 355.83486 0 0 0 22.117188 377.95312 A 355.83486 355.83486 0 0 0 116.56055 619.34766 C 118.53912 621.4832 120.61188 623.49525 122.66211 625.53711 A 355.83486 355.83486 0 0 0 127.04688 629.92188 C 188.789 688.00032 280.22247 705.91261 370.65234 691.77148 A 314.10604 314.10604 0 0 1 63.847656 377.95312 A 314.10604 314.10604 0 0 1 165.58789 146.84375 L 165.42383 146.66602 C 167.66255 144.60887 170.00029 142.64917 172.29297 140.64453 A 314.10604 314.10604 0 0 1 174.86719 138.39062 C 260.61093 64.792399 382.19003 27.60387 489.51172 40.076172 A 355.83486 355.83486 0 0 0 377.95312 22.117188 z M 448.16406 59.548828 C 427.39348 59.265373 406.29179 60.842695 385.24414 64.134766 A 314.10604 314.10604 0 0 1 692.05859 377.95312 A 314.10604 314.10604 0 0 1 590.34375 609.03906 L 590.50781 609.2168 C 590.50025 609.22436 590.48998 609.23072 590.48242 609.23828 C 588.25726 611.28297 585.93278 613.22984 583.6543 615.22266 A 314.10604 314.10604 0 0 1 581.01758 617.5332 C 495.50236 690.92378 374.34752 728.11706 267.24414 715.94141 A 355.83486 355.83486 0 0 0 377.95312 733.78711 A 355.83486 355.83486 0 0 0 733.78711 377.95312 A 355.83486 355.83486 0 0 0 639.66797 136.88477 C 591.62903 84.813642 521.99977 60.556461 448.16406 59.548828 z "
       transform="scale(0.26458333)" />
    <path
       d="m 50.564238,70.818908 -2.391939,8.926506 -13.247065,49.437576 h 54.232228 l 6.623618,-24.71966 h 16.41601 l 2.38968,-8.926495 H 98.172676 l 4.231674,-15.792983 h 34.19611 L 123.3534,129.18144 h 9.2414 l 13.24707,-49.437588 h 16.84321 l 2.38969,-8.926506 H 95.540305 L 82.308867,120.25493 h -35.74977 l 10.86693,-40.511425 c 23.327444,0.0092 16.994943,27.384315 0.737094,37.117675 H 70.022306 C 86.046171,99.739692 88.59504,70.827762 59.820588,70.817345 v -3.47e-4 h -0.01458 z"
       fill="url(#grad1)"
       id="path9"
       style="fill:#ffffff;stroke-width:0.264583" />
  </g>
</svg>
